<mxfile host="65bd71144e">
    <diagram name="第 1 页" id="_40hfTrjJxw_zA3YzX85">
        <mxGraphModel dx="988" dy="655" grid="1" gridSize="10" guides="1" tooltips="1" connect="1" arrows="1" fold="1" page="1" pageScale="1" pageWidth="827" pageHeight="1169" background="#ffffff" math="0" shadow="0">
            <root>
                <mxCell id="0"/>
                <mxCell id="1" parent="0"/>
                <mxCell id="CB7e41P8t8foF3Ptixr4-1" value="" style="shape=or;whiteSpace=wrap;html=1;" parent="1" vertex="1">
                    <mxGeometry x="130" y="100" width="60" height="80" as="geometry"/>
                </mxCell>
                <mxCell id="CB7e41P8t8foF3Ptixr4-2" value="" style="shape=or;whiteSpace=wrap;html=1;" parent="1" vertex="1">
                    <mxGeometry x="130" y="250" width="60" height="80" as="geometry"/>
                </mxCell>
                <mxCell id="CB7e41P8t8foF3Ptixr4-27" value="" style="edgeStyle=none;curved=1;rounded=0;orthogonalLoop=1;jettySize=auto;html=1;fontSize=12;startSize=8;endSize=8;" parent="1" source="CB7e41P8t8foF3Ptixr4-3" target="CB7e41P8t8foF3Ptixr4-5" edge="1">
                    <mxGeometry relative="1" as="geometry"/>
                </mxCell>
                <mxCell id="CB7e41P8t8foF3Ptixr4-3" value="" style="shape=xor;whiteSpace=wrap;html=1;" parent="1" vertex="1">
                    <mxGeometry x="290" y="180" width="70" height="80" as="geometry"/>
                </mxCell>
                <mxCell id="CB7e41P8t8foF3Ptixr4-4" value="" style="triangle;whiteSpace=wrap;html=1;" parent="1" vertex="1">
                    <mxGeometry x="430" y="180" width="60" height="80" as="geometry"/>
                </mxCell>
                <mxCell id="CB7e41P8t8foF3Ptixr4-5" value="" style="ellipse;whiteSpace=wrap;html=1;aspect=fixed;" parent="1" vertex="1">
                    <mxGeometry x="490" y="215" width="10" height="10" as="geometry"/>
                </mxCell>
                <mxCell id="CB7e41P8t8foF3Ptixr4-7" value="" style="ellipse;whiteSpace=wrap;html=1;aspect=fixed;" parent="1" vertex="1">
                    <mxGeometry x="360" y="215" width="10" height="10" as="geometry"/>
                </mxCell>
                <mxCell id="CB7e41P8t8foF3Ptixr4-8" value="" style="endArrow=none;html=1;rounded=0;fontSize=12;startSize=8;endSize=8;curved=1;entryX=0;entryY=0.25;entryDx=0;entryDy=0;entryPerimeter=0;" parent="1" target="CB7e41P8t8foF3Ptixr4-1" edge="1">
                    <mxGeometry width="50" height="50" relative="1" as="geometry">
                        <mxPoint x="40" y="120" as="sourcePoint"/>
                        <mxPoint x="80" y="420" as="targetPoint"/>
                    </mxGeometry>
                </mxCell>
                <mxCell id="CB7e41P8t8foF3Ptixr4-9" value="" style="endArrow=none;html=1;rounded=0;fontSize=12;startSize=8;endSize=8;curved=1;entryX=0;entryY=0.25;entryDx=0;entryDy=0;entryPerimeter=0;" parent="1" edge="1">
                    <mxGeometry width="50" height="50" relative="1" as="geometry">
                        <mxPoint x="40" y="160" as="sourcePoint"/>
                        <mxPoint x="130" y="160" as="targetPoint"/>
                        <Array as="points">
                            <mxPoint x="90" y="160"/>
                        </Array>
                    </mxGeometry>
                </mxCell>
                <mxCell id="CB7e41P8t8foF3Ptixr4-10" value="" style="endArrow=none;html=1;rounded=0;fontSize=12;startSize=8;endSize=8;curved=1;entryX=0;entryY=0.25;entryDx=0;entryDy=0;entryPerimeter=0;" parent="1" edge="1">
                    <mxGeometry width="50" height="50" relative="1" as="geometry">
                        <mxPoint x="40" y="270" as="sourcePoint"/>
                        <mxPoint x="130" y="270" as="targetPoint"/>
                    </mxGeometry>
                </mxCell>
                <mxCell id="CB7e41P8t8foF3Ptixr4-11" value="" style="endArrow=none;html=1;rounded=0;fontSize=12;startSize=8;endSize=8;curved=1;entryX=0;entryY=0.25;entryDx=0;entryDy=0;entryPerimeter=0;" parent="1" edge="1">
                    <mxGeometry width="50" height="50" relative="1" as="geometry">
                        <mxPoint x="40" y="310" as="sourcePoint"/>
                        <mxPoint x="130" y="310" as="targetPoint"/>
                    </mxGeometry>
                </mxCell>
                <mxCell id="CB7e41P8t8foF3Ptixr4-14" value="" style="endArrow=none;html=1;rounded=0;fontSize=12;startSize=8;endSize=8;curved=1;" parent="1" edge="1">
                    <mxGeometry width="50" height="50" relative="1" as="geometry">
                        <mxPoint x="190" y="139.66" as="sourcePoint"/>
                        <mxPoint x="240" y="140" as="targetPoint"/>
                    </mxGeometry>
                </mxCell>
                <mxCell id="CB7e41P8t8foF3Ptixr4-15" value="" style="endArrow=none;html=1;rounded=0;fontSize=12;startSize=8;endSize=8;curved=1;exitX=1;exitY=0.5;exitDx=0;exitDy=0;" parent="1" source="CB7e41P8t8foF3Ptixr4-28" edge="1">
                    <mxGeometry width="50" height="50" relative="1" as="geometry">
                        <mxPoint x="210" y="290" as="sourcePoint"/>
                        <mxPoint x="240" y="290" as="targetPoint"/>
                    </mxGeometry>
                </mxCell>
                <mxCell id="CB7e41P8t8foF3Ptixr4-16" value="" style="endArrow=none;html=1;rounded=0;fontSize=12;startSize=8;endSize=8;curved=1;" parent="1" edge="1">
                    <mxGeometry width="50" height="50" relative="1" as="geometry">
                        <mxPoint x="240" y="139.66" as="sourcePoint"/>
                        <mxPoint x="240" y="200" as="targetPoint"/>
                    </mxGeometry>
                </mxCell>
                <mxCell id="CB7e41P8t8foF3Ptixr4-17" value="" style="endArrow=none;html=1;rounded=0;fontSize=12;startSize=8;endSize=8;curved=1;" parent="1" edge="1">
                    <mxGeometry width="50" height="50" relative="1" as="geometry">
                        <mxPoint x="240" y="289.65999999999997" as="sourcePoint"/>
                        <mxPoint x="240" y="240" as="targetPoint"/>
                    </mxGeometry>
                </mxCell>
                <mxCell id="CB7e41P8t8foF3Ptixr4-18" value="" style="endArrow=none;html=1;rounded=0;fontSize=12;startSize=8;endSize=8;curved=1;entryX=0.175;entryY=0.25;entryDx=0;entryDy=0;entryPerimeter=0;" parent="1" target="CB7e41P8t8foF3Ptixr4-3" edge="1">
                    <mxGeometry width="50" height="50" relative="1" as="geometry">
                        <mxPoint x="240" y="200" as="sourcePoint"/>
                        <mxPoint x="300" y="200" as="targetPoint"/>
                    </mxGeometry>
                </mxCell>
                <mxCell id="CB7e41P8t8foF3Ptixr4-19" value="" style="endArrow=none;html=1;rounded=0;fontSize=12;startSize=8;endSize=8;curved=1;entryX=0.175;entryY=0.75;entryDx=0;entryDy=0;entryPerimeter=0;" parent="1" target="CB7e41P8t8foF3Ptixr4-3" edge="1">
                    <mxGeometry width="50" height="50" relative="1" as="geometry">
                        <mxPoint x="240" y="240" as="sourcePoint"/>
                        <mxPoint x="300" y="240" as="targetPoint"/>
                    </mxGeometry>
                </mxCell>
                <mxCell id="CB7e41P8t8foF3Ptixr4-20" value="" style="endArrow=none;html=1;rounded=0;fontSize=12;startSize=8;endSize=8;curved=1;entryX=0;entryY=0.5;entryDx=0;entryDy=0;" parent="1" target="CB7e41P8t8foF3Ptixr4-4" edge="1">
                    <mxGeometry width="50" height="50" relative="1" as="geometry">
                        <mxPoint x="369" y="219.66" as="sourcePoint"/>
                        <mxPoint x="459" y="219.66" as="targetPoint"/>
                    </mxGeometry>
                </mxCell>
                <mxCell id="CB7e41P8t8foF3Ptixr4-21" value="" style="endArrow=none;html=1;rounded=0;fontSize=12;startSize=8;endSize=8;curved=1;" parent="1" edge="1">
                    <mxGeometry width="50" height="50" relative="1" as="geometry">
                        <mxPoint x="500" y="219.66" as="sourcePoint"/>
                        <mxPoint x="570" y="220" as="targetPoint"/>
                    </mxGeometry>
                </mxCell>
                <mxCell id="CB7e41P8t8foF3Ptixr4-22" value="&lt;font color=&quot;#ff0000&quot; style=&quot;font-size: 11px;&quot;&gt;NET_1 :0&lt;/font&gt;" style="text;strokeColor=none;fillColor=none;html=1;align=center;verticalAlign=middle;whiteSpace=wrap;rounded=0;fontSize=16;" parent="1" vertex="1">
                    <mxGeometry x="20" y="90" width="60" height="30" as="geometry"/>
                </mxCell>
                <mxCell id="CB7e41P8t8foF3Ptixr4-23" value="&lt;font color=&quot;#ff0000&quot; style=&quot;font-size: 11px;&quot;&gt;NET_2 :1&lt;/font&gt;" style="text;strokeColor=none;fillColor=none;html=1;align=center;verticalAlign=middle;whiteSpace=wrap;rounded=0;fontSize=16;" parent="1" vertex="1">
                    <mxGeometry x="20" y="130" width="60" height="30" as="geometry"/>
                </mxCell>
                <mxCell id="CB7e41P8t8foF3Ptixr4-24" value="&lt;font color=&quot;#ff0000&quot; style=&quot;font-size: 11px;&quot;&gt;NET_3 :2&lt;/font&gt;" style="text;strokeColor=none;fillColor=none;html=1;align=center;verticalAlign=middle;whiteSpace=wrap;rounded=0;fontSize=16;" parent="1" vertex="1">
                    <mxGeometry x="20" y="240" width="60" height="30" as="geometry"/>
                </mxCell>
                <mxCell id="CB7e41P8t8foF3Ptixr4-25" value="&lt;font color=&quot;#ff0000&quot; style=&quot;font-size: 11px;&quot;&gt;NET_4 :3&lt;/font&gt;" style="text;strokeColor=none;fillColor=none;html=1;align=center;verticalAlign=middle;whiteSpace=wrap;rounded=0;fontSize=16;" parent="1" vertex="1">
                    <mxGeometry x="20" y="280" width="60" height="30" as="geometry"/>
                </mxCell>
                <mxCell id="CB7e41P8t8foF3Ptixr4-26" value="&lt;span style=&quot;color: rgb(255, 0, 0); font-family: Helvetica; font-size: 11px; font-style: normal; font-variant-ligatures: normal; font-variant-caps: normal; font-weight: 400; letter-spacing: normal; orphans: 2; text-align: center; text-indent: 0px; text-transform: none; widows: 2; word-spacing: 0px; -webkit-text-stroke-width: 0px; white-space: normal; background-color: rgb(251, 251, 251); text-decoration-thickness: initial; text-decoration-style: initial; text-decoration-color: initial; display: inline !important; float: none;&quot;&gt;NET_5 :4&lt;/span&gt;" style="text;whiteSpace=wrap;html=1;" parent="1" vertex="1">
                    <mxGeometry x="540" y="190" width="80" height="30" as="geometry"/>
                </mxCell>
                <mxCell id="CB7e41P8t8foF3Ptixr4-28" value="" style="ellipse;whiteSpace=wrap;html=1;aspect=fixed;" parent="1" vertex="1">
                    <mxGeometry x="190" y="285" width="10" height="10" as="geometry"/>
                </mxCell>
                <mxCell id="CB7e41P8t8foF3Ptixr4-32" value="&lt;font color=&quot;#4d9900&quot; style=&quot;font-size: 11px;&quot;&gt;primitive id&lt;/font&gt;" style="text;strokeColor=none;fillColor=none;html=1;align=center;verticalAlign=middle;whiteSpace=wrap;rounded=0;fontSize=16;" parent="1" vertex="1">
                    <mxGeometry x="106.25" y="70" width="107.5" height="30" as="geometry"/>
                </mxCell>
                <mxCell id="CB7e41P8t8foF3Ptixr4-33" value="&lt;span style=&quot;color: rgb(77, 153, 0); font-size: 11px;&quot;&gt;primitive&amp;nbsp;&lt;/span&gt;&lt;span style=&quot;color: rgb(77, 153, 0); font-size: 11px; background-color: initial;&quot;&gt;id&lt;/span&gt;" style="text;strokeColor=none;fillColor=none;html=1;align=center;verticalAlign=middle;whiteSpace=wrap;rounded=0;fontSize=16;" parent="1" vertex="1">
                    <mxGeometry x="106.25" y="220" width="107.5" height="30" as="geometry"/>
                </mxCell>
                <mxCell id="CB7e41P8t8foF3Ptixr4-34" value="&lt;span style=&quot;color: rgb(77, 153, 0); font-size: 11px;&quot;&gt;primitive id&lt;/span&gt;" style="text;strokeColor=none;fillColor=none;html=1;align=center;verticalAlign=middle;whiteSpace=wrap;rounded=0;fontSize=16;" parent="1" vertex="1">
                    <mxGeometry x="273.75" y="150" width="102.5" height="30" as="geometry"/>
                </mxCell>
                <mxCell id="CB7e41P8t8foF3Ptixr4-35" value="&lt;span style=&quot;color: rgb(77, 153, 0); font-size: 11px;&quot;&gt;primitive id&lt;/span&gt;" style="text;strokeColor=none;fillColor=none;html=1;align=center;verticalAlign=middle;whiteSpace=wrap;rounded=0;fontSize=16;" parent="1" vertex="1">
                    <mxGeometry x="403.75" y="150" width="102.5" height="30" as="geometry"/>
                </mxCell>
                <mxCell id="CB7e41P8t8foF3Ptixr4-36" value="&lt;font color=&quot;#ff0000&quot;&gt;&lt;span style=&quot;font-size: 11px;&quot;&gt;n1 :5&lt;/span&gt;&lt;/font&gt;" style="text;strokeColor=none;fillColor=none;html=1;align=center;verticalAlign=middle;whiteSpace=wrap;rounded=0;fontSize=16;" parent="1" vertex="1">
                    <mxGeometry x="190" y="110" width="60" height="30" as="geometry"/>
                </mxCell>
                <mxCell id="CB7e41P8t8foF3Ptixr4-37" value="&lt;font color=&quot;#ff0000&quot;&gt;&lt;span style=&quot;font-size: 11px;&quot;&gt;n2 :6&lt;/span&gt;&lt;/font&gt;" style="text;strokeColor=none;fillColor=none;html=1;align=center;verticalAlign=middle;whiteSpace=wrap;rounded=0;fontSize=16;" parent="1" vertex="1">
                    <mxGeometry x="190" y="265" width="60" height="30" as="geometry"/>
                </mxCell>
                <mxCell id="CB7e41P8t8foF3Ptixr4-38" value="&lt;font color=&quot;#ff0000&quot;&gt;&lt;span style=&quot;font-size: 11px;&quot;&gt;n3 :7&lt;/span&gt;&lt;/font&gt;" style="text;strokeColor=none;fillColor=none;html=1;align=center;verticalAlign=middle;whiteSpace=wrap;rounded=0;fontSize=16;" parent="1" vertex="1">
                    <mxGeometry x="365" y="195" width="60" height="30" as="geometry"/>
                </mxCell>
                <mxCell id="CB7e41P8t8foF3Ptixr4-39" value="&lt;span style=&quot;font-size: 11px;&quot;&gt;&lt;font color=&quot;#007fff&quot;&gt;AND2X1&lt;/font&gt;&lt;/span&gt;" style="text;strokeColor=none;fillColor=none;html=1;align=center;verticalAlign=middle;whiteSpace=wrap;rounded=0;fontSize=16;" parent="1" vertex="1">
                    <mxGeometry x="130" y="125" width="60" height="30" as="geometry"/>
                </mxCell>
                <mxCell id="CB7e41P8t8foF3Ptixr4-41" value="&lt;span style=&quot;font-size: 11px;&quot;&gt;&lt;font color=&quot;#007fff&quot;&gt;NAND2X1&lt;/font&gt;&lt;/span&gt;" style="text;strokeColor=none;fillColor=none;html=1;align=center;verticalAlign=middle;whiteSpace=wrap;rounded=0;fontSize=16;" parent="1" vertex="1">
                    <mxGeometry x="130" y="275" width="60" height="30" as="geometry"/>
                </mxCell>
                <mxCell id="CB7e41P8t8foF3Ptixr4-42" value="&lt;span style=&quot;font-size: 11px;&quot;&gt;&lt;font color=&quot;#007fff&quot;&gt;NOR2X1&lt;/font&gt;&lt;/span&gt;" style="text;strokeColor=none;fillColor=none;html=1;align=center;verticalAlign=middle;whiteSpace=wrap;rounded=0;fontSize=16;" parent="1" vertex="1">
                    <mxGeometry x="310" y="208.75" width="50" height="22.5" as="geometry"/>
                </mxCell>
                <mxCell id="CB7e41P8t8foF3Ptixr4-43" value="&lt;span style=&quot;font-size: 11px;&quot;&gt;&lt;font color=&quot;#007fff&quot;&gt;INVX1&lt;/font&gt;&lt;/span&gt;" style="text;strokeColor=none;fillColor=none;html=1;align=center;verticalAlign=middle;whiteSpace=wrap;rounded=0;fontSize=16;" parent="1" vertex="1">
                    <mxGeometry x="430" y="208.75" width="50" height="22.5" as="geometry"/>
                </mxCell>
                <mxCell id="CB7e41P8t8foF3Ptixr4-44" value="&lt;span style=&quot;font-size: 11px;&quot;&gt;&lt;font color=&quot;#cccc00&quot;&gt;I1-Y&lt;/font&gt;&lt;/span&gt;" style="text;strokeColor=none;fillColor=none;html=1;align=center;verticalAlign=middle;whiteSpace=wrap;rounded=0;fontSize=16;" parent="1" vertex="1">
                    <mxGeometry x="190" y="137.5" width="50" height="22.5" as="geometry"/>
                </mxCell>
                <mxCell id="CB7e41P8t8foF3Ptixr4-45" value="&lt;span style=&quot;font-size: 11px;&quot;&gt;&lt;font color=&quot;#cccc00&quot;&gt;I1-A&lt;/font&gt;&lt;/span&gt;" style="text;strokeColor=none;fillColor=none;html=1;align=center;verticalAlign=middle;whiteSpace=wrap;rounded=0;fontSize=16;" parent="1" vertex="1">
                    <mxGeometry x="80" y="97.5" width="50" height="22.5" as="geometry"/>
                </mxCell>
                <mxCell id="CB7e41P8t8foF3Ptixr4-46" value="&lt;span style=&quot;font-size: 11px;&quot;&gt;&lt;font color=&quot;#cccc00&quot;&gt;I1-B&lt;/font&gt;&lt;/span&gt;" style="text;strokeColor=none;fillColor=none;html=1;align=center;verticalAlign=middle;whiteSpace=wrap;rounded=0;fontSize=16;" parent="1" vertex="1">
                    <mxGeometry x="80" y="137.5" width="50" height="22.5" as="geometry"/>
                </mxCell>
                <mxCell id="CB7e41P8t8foF3Ptixr4-47" value="&lt;span style=&quot;font-size: 11px;&quot;&gt;&lt;font color=&quot;#cccc00&quot;&gt;I2-Y&lt;/font&gt;&lt;/span&gt;" style="text;strokeColor=none;fillColor=none;html=1;align=center;verticalAlign=middle;whiteSpace=wrap;rounded=0;fontSize=16;" parent="1" vertex="1">
                    <mxGeometry x="195" y="287.5" width="50" height="22.5" as="geometry"/>
                </mxCell>
                <mxCell id="CB7e41P8t8foF3Ptixr4-48" value="&lt;span style=&quot;font-size: 11px;&quot;&gt;&lt;font color=&quot;#cccc00&quot;&gt;I2-A&lt;/font&gt;&lt;/span&gt;" style="text;strokeColor=none;fillColor=none;html=1;align=center;verticalAlign=middle;whiteSpace=wrap;rounded=0;fontSize=16;" parent="1" vertex="1">
                    <mxGeometry x="75" y="247.5" width="50" height="22.5" as="geometry"/>
                </mxCell>
                <mxCell id="CB7e41P8t8foF3Ptixr4-49" value="&lt;span style=&quot;font-size: 11px;&quot;&gt;&lt;font color=&quot;#cccc00&quot;&gt;I2-B&lt;/font&gt;&lt;/span&gt;" style="text;strokeColor=none;fillColor=none;html=1;align=center;verticalAlign=middle;whiteSpace=wrap;rounded=0;fontSize=16;" parent="1" vertex="1">
                    <mxGeometry x="75" y="287.5" width="50" height="22.5" as="geometry"/>
                </mxCell>
                <mxCell id="CB7e41P8t8foF3Ptixr4-50" value="&lt;span style=&quot;font-size: 11px;&quot;&gt;&lt;font color=&quot;#cccc00&quot;&gt;I3-Y&lt;/font&gt;&lt;/span&gt;" style="text;strokeColor=none;fillColor=none;html=1;align=center;verticalAlign=middle;whiteSpace=wrap;rounded=0;fontSize=16;" parent="1" vertex="1">
                    <mxGeometry x="365" y="220" width="50" height="22.5" as="geometry"/>
                </mxCell>
                <mxCell id="CB7e41P8t8foF3Ptixr4-51" value="&lt;span style=&quot;font-size: 11px;&quot;&gt;&lt;font color=&quot;#cccc00&quot;&gt;I3-A&lt;/font&gt;&lt;/span&gt;" style="text;strokeColor=none;fillColor=none;html=1;align=center;verticalAlign=middle;whiteSpace=wrap;rounded=0;fontSize=16;" parent="1" vertex="1">
                    <mxGeometry x="250" y="180" width="50" height="22.5" as="geometry"/>
                </mxCell>
                <mxCell id="CB7e41P8t8foF3Ptixr4-52" value="&lt;span style=&quot;font-size: 11px;&quot;&gt;&lt;font color=&quot;#cccc00&quot;&gt;I3-B&lt;/font&gt;&lt;/span&gt;" style="text;strokeColor=none;fillColor=none;html=1;align=center;verticalAlign=middle;whiteSpace=wrap;rounded=0;fontSize=16;" parent="1" vertex="1">
                    <mxGeometry x="250" y="217.5" width="50" height="22.5" as="geometry"/>
                </mxCell>
                <mxCell id="CB7e41P8t8foF3Ptixr4-53" value="&lt;span style=&quot;font-size: 11px;&quot;&gt;&lt;font color=&quot;#cccc00&quot;&gt;I4-Y&lt;/font&gt;&lt;/span&gt;" style="text;strokeColor=none;fillColor=none;html=1;align=center;verticalAlign=middle;whiteSpace=wrap;rounded=0;fontSize=16;" parent="1" vertex="1">
                    <mxGeometry x="530" y="217.5" width="50" height="22.5" as="geometry"/>
                </mxCell>
                <mxCell id="5DRtoPvIOe9zMTvpqW8i-1" value="" style="rounded=0;whiteSpace=wrap;html=1;fillColor=#FFFFFF;opacity=30;strokeColor=none;movable=1;resizable=1;rotatable=1;deletable=1;editable=1;connectable=1;" parent="1" vertex="1">
                    <mxGeometry x="125" y="80" width="250" height="270" as="geometry"/>
                </mxCell>
                <mxCell id="5DRtoPvIOe9zMTvpqW8i-2" value="" style="rounded=0;whiteSpace=wrap;html=1;fillColor=#FFFFFF;opacity=30;strokeColor=none;" parent="1" vertex="1">
                    <mxGeometry x="414" y="155" width="96" height="115" as="geometry"/>
                </mxCell>
                <mxCell id="5DRtoPvIOe9zMTvpqW8i-9" value="" style="endArrow=classic;html=1;rounded=0;fontSize=12;startSize=8;endSize=8;curved=1;dashed=1;" parent="1" edge="1">
                    <mxGeometry width="50" height="50" relative="1" as="geometry">
                        <mxPoint x="250" y="350" as="sourcePoint"/>
                        <mxPoint x="250" y="400" as="targetPoint"/>
                        <Array as="points"/>
                    </mxGeometry>
                </mxCell>
                <mxCell id="5DRtoPvIOe9zMTvpqW8i-10" value="" style="endArrow=classic;html=1;rounded=0;fontSize=12;startSize=8;endSize=8;curved=1;dashed=1;exitX=0.5;exitY=1;exitDx=0;exitDy=0;" parent="1" source="5DRtoPvIOe9zMTvpqW8i-2" edge="1">
                    <mxGeometry width="50" height="50" relative="1" as="geometry">
                        <mxPoint x="465" y="340" as="sourcePoint"/>
                        <mxPoint x="462" y="320" as="targetPoint"/>
                    </mxGeometry>
                </mxCell>
                <mxCell id="5DRtoPvIOe9zMTvpqW8i-12" value="&lt;font color=&quot;#7f00ff&quot;&gt;标准单元U1&lt;/font&gt;" style="rounded=0;whiteSpace=wrap;html=1;fillColor=#CCCCCC;opacity=30;strokeColor=none;" parent="1" vertex="1">
                    <mxGeometry x="200" y="400" width="93.75" height="20" as="geometry"/>
                </mxCell>
                <mxCell id="5DRtoPvIOe9zMTvpqW8i-13" value="&lt;font color=&quot;#7f00ff&quot;&gt;标准单元U2&lt;/font&gt;" style="rounded=0;whiteSpace=wrap;html=1;fillColor=#CCCCCC;opacity=30;strokeColor=none;" parent="1" vertex="1">
                    <mxGeometry x="416.25" y="320" width="93.75" height="20" as="geometry"/>
                </mxCell>
            </root>
        </mxGraphModel>
    </diagram>
</mxfile>